<?xml version="1.0" encoding="UTF-8"?>
<svg width="412px" height="412px" viewBox="0 0 412 412" version="1.1" xmlns="http://www.w3.org/2000/svg" xmlns:xlink="http://www.w3.org/1999/xlink">
    <title>Myself</title>
    <defs>
        <linearGradient x1="50%" y1="0%" x2="50%" y2="100%" id="linearGradient-1">
            <stop stop-color="#00F9FF" offset="0%"></stop>
            <stop stop-color="#00FF97" offset="100%"></stop>
        </linearGradient>
        <path d="M115.374834,-4.66128138e-15 L296.625166,4.66128138e-15 C336.743509,-2.70833872e-15 351.29139,4.1771525 365.958057,12.0209717 C380.624723,19.8647908 392.135209,31.3752767 399.979028,46.0419433 C407.822847,60.70861 412,75.2564907 412,115.374834 L412,296.625166 C412,336.743509 407.822847,351.29139 399.979028,365.958057 C392.135209,380.624723 380.624723,392.135209 365.958057,399.979028 C351.29139,407.822847 336.743509,412 296.625166,412 L115.374834,412 C75.2564907,412 60.70861,407.822847 46.0419433,399.979028 C31.3752767,392.135209 19.8647908,380.624723 12.0209717,365.958057 C4.1771525,351.29139 1.80555915e-15,336.743509 -3.10752092e-15,296.625166 L3.10752092e-15,115.374834 C-1.80555915e-15,75.2564907 4.1771525,60.70861 12.0209717,46.0419433 C19.8647908,31.3752767 31.3752767,19.8647908 46.0419433,12.0209717 C60.70861,4.1771525 75.2564907,2.70833872e-15 115.374834,-4.66128138e-15 Z" id="path-2"></path>
        <linearGradient x1="50%" y1="0%" x2="50%" y2="100%" id="linearGradient-4">
            <stop stop-color="#000000" offset="0%"></stop>
            <stop stop-color="#00FF3B" offset="100%"></stop>
        </linearGradient>
        <linearGradient x1="50%" y1="0%" x2="50%" y2="100%" id="linearGradient-5">
            <stop stop-color="#00E0FF" offset="0%"></stop>
            <stop stop-color="#FFFFFF" offset="100%"></stop>
        </linearGradient>
        <path d="M238,100 C286.601058,100 326,139.398942 326,188 L326,188 L326,561 L150,561 L150,188 L150.011789,186.544759 C150.788899,138.614903 189.884953,100 238,100 Z" id="path-6"></path>
        <filter x="-9.4%" y="-1.4%" width="113.1%" height="105.6%" filterUnits="objectBoundingBox" id="filter-7">
            <feOffset dx="-6" dy="9" in="SourceAlpha" result="shadowOffsetOuter1"></feOffset>
            <feMorphology radius="12" operator="erode" in="SourceAlpha" result="shadowInner"></feMorphology>
            <feOffset dx="-6" dy="9" in="shadowInner" result="shadowInner"></feOffset>
            <feComposite in="shadowOffsetOuter1" in2="shadowInner" operator="out" result="shadowOffsetOuter1"></feComposite>
            <feGaussianBlur stdDeviation="2" in="shadowOffsetOuter1" result="shadowBlurOuter1"></feGaussianBlur>
            <feColorMatrix values="0 0 0 0 0   0 0 0 0 0   0 0 0 0 0  0 0 0 0.5 0" type="matrix" in="shadowBlurOuter1"></feColorMatrix>
        </filter>
    </defs>
    <g id="Myself" stroke="none" stroke-width="1" fill="none" fill-rule="evenodd">
        <g>
            <mask id="mask-3" fill="white">
                <use xlink:href="#path-2"></use>
            </mask>
            <use id="all" fill="url(#linearGradient-1)" xlink:href="#path-2"></use>
            <polygon id="inside" fill="url(#linearGradient-4)" mask="url(#mask-3)" points="215.492247 298 218.657269 389.315013 302 299.950028 302 298"></polygon>
            <path d="M316,152.77985 C321.50935,154.895904 325.3704,156.455992 327.583151,157.460111 C335.357568,160.988046 339.904248,163.114464 343.134919,164.719394 C345.988629,166.137058 348.565228,167.39822 350.85222,168.563076 C364.125975,175.323926 368.500963,178.151731 372.830419,180.613873 C380.421959,184.931147 388.928254,190.258736 398.349303,196.596638 L316.869498,284 L316,284 L316,152.77985 Z" id="outside" fill="url(#linearGradient-5)" mask="url(#mask-3)"></path>
            <path d="M237.193,59.506 L306,65.001 L237.193,70.494 L226.176,65.114 L219.439,69.607 L212.737,65.134 L206.386,69.37 L208.480443,118.009682 C274.369578,118.523871 342.209431,139.518404 412,180.993281 L412,200.656 L414.376595,202.872408 L412,205.42 L412,206 L411.674,205.769 L338.723,284 L413,284 L413,298 L325.668,298 L316,308.368 L316,412 L302,412 L302,323.381 L219.438,411.918 L219.441,412 L219.361,412 L219.325064,412.039566 L219.283,412 L192.625,412 L199.129,212.212908 L202.815704,130.773917 C137.135872,131.567379 69.5306374,156.64274 0,206 L0,180.993281 C69.7457409,139.545045 137.54327,118.55085 203.392587,118.010698 L205.596,69.317 L199.329,65.133 L192.625,69.607 L185.862,65.094 L174.806,70.494 L106,65 L174.806,59.506 L185.862,64.906 L192.625,60.395 L199.329,64.867 L205.999,60.415 L206,60.395 L206.001,60.414 L206.032,60.395 L212.737,64.866 L219.439,60.395 L226.177,64.888 L237.193,59.506 Z M302,298 L215.501,298 L218.656,389.295 L302,299.92 L302,298 Z M209.030334,130.771339 L211.114,179.177 L201.085403,169.138028 L200.375014,185.376309 L211.873943,196.844165 L211.838,195.991 L212.536,212.212908 L215.017,284 L302,284 L302.000198,147.594311 C270.597561,136.723066 239.607606,131.115409 209.030334,130.771339 Z M316.000111,152.778864 L316,284 L316.846,284 L398.347561,196.598614 C370.592477,178.089981 343.143327,163.483397 316.000111,152.778864 Z" id="all-my-story" fill="#404040" fill-rule="nonzero" opacity="0.64" mask="url(#mask-3)"></path>
            <g id="broken-heart" mask="url(#mask-3)" transform="translate(238.000000, 330.500000) rotate(-45.000000) translate(-238.000000, -330.500000) ">
                <use fill="black" fill-opacity="1" filter="url(#filter-7)" xlink:href="#path-6"></use>
                <path stroke-opacity="0.67" stroke="#404040" stroke-width="12" d="M238,106 C260.398111,106 280.698846,114.980107 295.498007,129.536487 C310.316608,144.111988 319.62,164.278167 319.988608,186.61812 L319.988608,186.61812 L320,188.024304 L320,555 L156,555 L156,188.024304 L156.011392,186.61812 C156.38,164.278167 165.683392,144.111988 180.501993,129.536487 C195.301154,114.980107 215.601889,106 238,106 Z" stroke-linejoin="square"></path>
            </g>
            <path d="M169.172736,141.472899 C214.460085,141.472899 243.114593,178.37968 243.114593,223.943172 C243.114593,224.196694 242.963843,224.483017 242.679741,224.797471 L242.05768,230.721764 L89.8444875,375.256032 L90.0770678,222.777582 L90.1854875,222.775899 L90.1425531,221.810944 C88.2719931,174.34057 123.176493,142.122219 167.81704,141.482599 Z" id="Darkness" fill-opacity="0.445097383" fill="#585858" mask="url(#mask-3)" transform="translate(166.479540, 258.364466) rotate(-45.000000) translate(-166.479540, -258.364466) "></path>
        </g>
    </g>
</svg>